<svg width="40" height="40" 
  xmlns:dc="http://purl.org/dc/elements/1.1/" 
  xmlns:cc="http://creativecommons.org/ns#" 
  xmlns:rdf="http://www.w3.org/1999/02/22-rdf-syntax-ns#" 
  xmlns:svg="http://www.w3.org/2000/svg" 
  xmlns="http://www.w3.org/2000/svg" 
  xmlns:sodipodi="http://sodipodi.sourceforge.net/DTD/sodipodi-0.dtd" 
  xmlns:inkscape="http://www.inkscape.org/namespaces/inkscape" version="1.1" x="0px" y="0px" viewBox="0 0 100 125">
  <g transform="translate(0,-952.36218)">
    <path style="text-indent:0;text-transform:none;direction:ltr;block-progression:tb;baseline-shift:baseline;color:#eee;enable-background:accumulate;" d="m 50,961.36112 c 23.5294,0 43,15.6142 43,35.4062 0,10.92828 -6.373,19.88458 -15.5625,26.21888 l 7.4063,17.5938 a 2.0002,2.0002 0 0 1 -2.8126,2.5312 l -21.4687,-11.7188 c -3.2101,0.5264 -7.4777,0.8126 -10.5625,0.8126 -23.5294,0 -43,-15.6455 -43,-35.43768 0,-19.792 19.4706,-35.4062 43,-35.4062 z m 0,4 c -21.7678,0 -39,14.2641 -39,31.4062 0,17.14228 17.2322,31.43768 39,31.43768 3.0809,0 7.8959,-0.2961 10.625,-0.8126 a 2.0002,2.0002 0 0 1 1.3438,0.1876 l 16.9687,9.25 -5.7813,-13.7188 a 2.0002,2.0002 0 0 1 0.7813,-2.4375 C 83.1464,1014.8012 89,1006.6744 89,996.76732 c 0,-17.1421 -17.2322,-31.4062 -39,-31.4062 z m 19,17 c 1.1045,0 2,0.8954 2,2 0,1.1046 -0.8955,2 -2,2 l -38,0 c -1.1046,0 -2,-0.8954 -2,-2 0,-1.1046 0.8954,-2 2,-2 l 38,0 z m 0,12 c 1.1045,0 2,0.8954 2,2 0,1.1046 -0.8955,2 -2,2 l -38,0 c -1.1046,0 -2,-0.8954 -2,-2 0,-1.1046 0.8954,-2 2,-2 l 38,0 z m 0,12.00008 c 1.1045,0 2,0.8954 2,2 0,1.1046 -0.8955,2 -2,2 l -32,0 c -1.1046,0 -2,-0.8954 -2,-2 0,-1.1046 0.8954,-2 2,-2 l 32,0 z" fill="#eee" fill-opacity="1" stroke="none" marker="none" visibility="visible" display="inline" overflow="visible"/>
  </g>
  <!-- <text x="0" y="115" fill="#eee" font-size="5px" font-weight="bold" font-family="'Helvetica Neue', Helvetica, Arial-Unicode, Arial, Sans-serif">Created by Aya Sofya</text> -->
  <!-- <text x="0" y="120" fill="#eee" font-size="5px" font-weight="bold" font-family="'Helvetica Neue', Helvetica, Arial-Unicode, Arial, Sans-serif">from the Noun Project</text> -->
</svg>