<svg width="40" height="40" 
  xmlns="http://www.w3.org/2000/svg" data-name="Layer 1" viewBox="0 0 100 125" x="0px" y="0px">
  <title>Artboard 529</title>
  <path fill="#eee" d="M33,54h7a2,2,0,0,0,0-4H33a7,7,0,0,0,0,14H61a3,3,0,0,1,0,6H48a2,2,0,0,0,0,4H61a7,7,0,0,0,0-14H33a3,3,0,0,1,0-6Z"/>
  <path fill="#eee" d="M64,26a2,2,0,0,0-1.41.59L50.1,39.07A13.94,13.94,0,0,0,46,49v3a2,2,0,0,0,2,2h3a13.92,13.92,0,0,0,9.9-4.1L73.41,37.41A2,2,0,0,0,74,36,10,10,0,0,0,64,26ZM58.1,47.07A9.93,9.93,0,0,1,51,50H50V49a9.93,9.93,0,0,1,2.93-7.07L64.78,30.05A6,6,0,0,1,70,35.22Z"/>
  <!-- <text x="0" y="115" fill="#000000" font-size="5px" font-weight="bold" font-family="'Helvetica Neue', Helvetica, Arial-Unicode, Arial, Sans-serif">Created by Gregor Cresnar</text> -->
  <!-- <text x="0" y="120" fill="#000000" font-size="5px" font-weight="bold" font-family="'Helvetica Neue', Helvetica, Arial-Unicode, Arial, Sans-serif">from the Noun Project</text> -->
</svg>